# xmcd CD database file
# Copyright (C) 1997 Ti Kan
#
# Track frame offsets:
#  182
#  19442
#  37430
#  52587
#  70552
#  88875
#  111312
#  129275
#  147042
#  164757
#  182637
#  200290
#  222752
#  239885
#  263112
#
# Disc length: 3745 seconds
#
# Revision: 1
# Processed by: cddbd v1.4b41PL1 Copyright (c) Steve Scherf et al.
# Submitted via: CDWizzard Release:4.20
#
DISCID=e00e9f0f
DTITLE=Buju Banton - Voice Of Jamaica
DYEAR=1900
DGENRE=
TTITLE0=Searching
TTITLE1=Red Rose
TTITLE2=Commitment
TTITLE3=Deportees (Things Change)
TTITLE4=No Respect
TTITLE5=If Loving Was A Crime
TTITLE6=Good Body
TTITLE7=Wicked Act
TTITLE8=Tribal War
TTITLE9=A Little More Time
TTITLE10=Him Take Off
TTITLE11=Willy (Dont Be Silly)
TTITLE12=Gone A Lead
TTITLE13=Make My Day
TTITLE14=Operation Ardent
EXTD=
EXTT0=
EXTT1=
EXTT2=
EXTT3=
EXTT4=
EXTT5=
EXTT6=
EXTT7=
EXTT8=
EXTT9=
EXTT10=
EXTT11=
EXTT12=
EXTT13=
EXTT14=
PLAYORDER=
